<svg width="316.5px" height="316.5px" viewBox="0 0 36 36" fill="none" xmlns="http://www.w3.org/2000/svg">
	<g id="SVGRepo_bgCarrier" stroke-width="0"></g>
	<g id="SVGRepo_tracerCarrier" stroke-linecap="round" stroke-linejoin="round"></g>
	<g id="SVGRepo_iconCarrier">
		<path fill-rule="evenodd" clip-rule="evenodd"
			d="M33 18C33 26.2843 26.2843 33 18 33C9.71573 33 3 26.2843 3 18C3 9.71573 9.71573 3 18 3C26.2843 3 33 9.71573 33 18ZM10.5075 13.5C10.5075 12.675 11.175 12 12 12H24C24.825 12 25.5 12.675 25.5 13.5V22.5C25.5 23.325 24.825 24 24 24H12C11.175 24 10.5 23.325 10.5 22.5L10.5075 13.5ZM18 18.75L12 14.9999V22.5H24V14.9999L18 18.75ZM18 17.25L12 13.5H24L18 17.25Z"
			fill="#FF702C"></path>
	</g>
</svg>
